<?xml version="1.0" encoding="UTF-8"?>
<svg xmlns="http://www.w3.org/2000/svg" xmlns:xlink="http://www.w3.org/1999/xlink" version="1.1" id="Layer_1" x="0px" y="0px" viewBox="0 0 516.2 344.9" style="enable-background:new 0 0 516.2 344.9;" xml:space="preserve">
<style type="text/css">
	.st0{fill-rule:evenodd;clip-rule:evenodd;fill:#FFFFFF;}
	.st1{fill-rule:evenodd;clip-rule:evenodd;fill:#DDBC3D;}
	.st2{fill-rule:evenodd;clip-rule:evenodd;fill:#13294B;}
</style>
<g id="Fanpact_Logo_SVG_2025" transform="translate(-2.123 -2.538)">
	<path id="Path_7762" class="st0" d="M59.7,328l1.5,9.9c0,0-7.9,20.2-20.2,1.9L13.7,50.4c0,0-0.2-6.7-3.5-9.8c0,0-12.5-8-6.4-25.2   c0,0,14.5-27.7,35.1-1.8c0,0,8.7,12.2-2.9,25.7c0,0-2.7,3.8-1.9,10.8L34,53.9c0,0,62.1,1.2,120.5,20.8l177.2,58.6   c0,0,125.2,39,185.3,45.2c0,0,5.8,1.5-6.9,9.6s-60.9,36.8-116.8,55.3c0,0-83.3,25.6-162.2,33.7l-103.5,18.6c0,0-53.6,8.7-64.7,17.2   C62.8,312.8,58.3,317.1,59.7,328z"></path>
	<path id="Path_7763" class="st1" d="M49.7,69.9l15.9-0.3c0,0,2-0.3,2.1,2.2s11.8,214.7,11.8,214.7s0.3,3.1-3.5,3.8   s-14.1,4.2-14.1,4.2s-3.5,2.3-3.5-2.9S48.5,71.8,48.5,71.8S48.2,69.9,49.7,69.9z"></path>
	<path id="Path_7764" class="st2" d="M92.5,94.7l8.8,175.5c0,0-0.3,2.4,3.9,1.2l10.5-2.9c0,0,1.5,0,1.4-6.2s-3.4-67.8-3.4-67.8   s-1-3,3.4-2.7c4,0.1,8,0,12-0.3c0,0,2.6,0.1,0.7-5l-1-11.9l-0.1-1.3c0,0,0.5-0.9-2.3-0.9c-2.8-0.1-11.5-0.5-11.5-0.5   s-2,0.5-1.9-2.5s-2.7-51.1-2.7-51.1s-0.8-2.2,2.3-1.1c3.1,1,13.5,2.9,13.5,2.9s2.2,0.1,2.3-3s-0.1-13.7-0.1-13.7s0.1-2.7-3.9-2.9   s-29.7-7.2-29.7-7.2S93.5,92.2,92.5,94.7z"></path>
	<path id="Path_7765" class="st2" d="M194.6,253.5l10.5-1.9c0,0,4.4-0.6,3.1-11.5l-3.3-57.1c0,0-0.5-14.3,1.7-0.3l16.7,62.2   c0,0,1.4,2.6,6.7,1.8l6.8-0.8c0,0,4.3-0.2,3.3-8.7l-4.9-103c-0.2-3.6-3-6.4-6.6-6.6L222,126c0,0-3-1.3-2.5,11.1s3.3,53.8,3.3,53.8   v1.2c0,0-0.3,7.7-1.4,0.1s-17.7-65-17.7-65l-0.8-3.6c0,0-0.7-2.7-4.7-4.3c-2.4-1-4.9-1.6-7.5-1.9c0,0-5.5-2.1-5.1,3.8   c0.5,5.9,6.8,130.2,6.8,130.2S192.9,253.8,194.6,253.5z"></path>
	<path id="Path_7766" class="st2" d="M184,245.1l-19.7-130.5c0,0-0.4-5-4.3-5.4l-13.8-3.3c0,0-2.8-0.9-3.1,1.3l-8.6,152.2   c0,0-1.1,3.6,3.9,3.2l11.1-2.4c0,0,2.9-2.2,2.6-7l0.2-21.3c0,0-0.6-4.6,3.9-4.7l6.4-0.6c0,0,2.9-1.6,3.1,5.3l3.3,22.2   c0,0,0.6,2.9,4.1,2l10.1-2C183.2,254.3,186.1,252.5,184,245.1z M160.6,196.9l-5.1,0.2c-1.6,0-1.4-2.5-1.4-2.5l-0.2-8l0.7-19l0.5-4   l0.8-7.7l1,7.6l0.6,4.1l0.5,3.4l1.5,10.8l1.5,12.1C161.7,196.4,160.6,196.9,160.6,196.9L160.6,196.9z"></path>
	<path id="Path_7767" class="st2" d="M401.2,178.3l1,35.3c0,0,0,5.5,3.9,5.1l9.8-2.4c0,0,1.3-0.1,0.6-3.1l-1.6-31.1   c0,0-0.5-2.1,2.4-1.2l9.3,1.7c0,0,1.4-0.2,1.1-4.1l-0.3-4.5l-37.9-8.3c0,0-3.3-1.1-2.7,3.8l0.7,4c0,0,0.4,2.5,5,3.3L401.2,178.3z"></path>
	<path id="Path_7768" class="st2" d="M369.2,185c0,0,2.9-0.6,8.8,0.8c0,0,4.7,1.8,4-4.4c0,0-0.4-14.9-14-19.6   c-13.6-4.8-23-0.3-23-0.3s-6.2,2.5-6.7,12.4L341,210c0,0,2.1,15.2,16.2,15.4c0,0,14.6,0.1,22.3-4.1c0,0,5.4-1.9,4.4-16.6v-1.8   c-3.1-1.4-6.5-2.1-9.9-2.2c0,0-4.8-0.9-4.6,4.9c0,0-0.8,14.2-12.4,5.5c0,0-0.9-1.5-1.3-6.1l-2.1-28.5c0,0-0.2-5.6,2.6-5.6l5.2,0.1   c0,0,4.9-0.6,5.7,6.4l0.7,6.2C367.6,183.6,367.9,185.3,369.2,185z"></path>
	<path id="Path_7769" class="st2" d="M336.6,225.6l-15.8-71.2c0,0-0.4-2.7-4.8-3.3l-11.9-2.3c0,0-3.7-1.8-4.3,4.4l-8.5,79.6   c0,0-0.9,3.8,4,3l9.7-1.4c0,0,2.2-0.7,2.3-4.5l0.3-14.5c0,0-0.1-3.2,5.3-2.9h5.2l3.5,15.9c0,0,0.4,3.4,5.6,2.8l8.6-1.7   C335.7,229.5,338,229.1,336.6,225.6z M315.6,201H309c-0.6-0.5,0.3-2.5,0.3-2.5l1-7.4l0.4-12.9l0.1-2c0.2-4.7,1.9-0.4,1.9-0.4   l0.3,1.4l3.2,19.9C316.8,200.9,315.6,201,315.6,201z"></path>
	<path id="Path_7770" class="st2" d="M285.8,152.2c0,0-4.3-13.2-22.5-16l-15.8-3.8c0,0-2.3-0.8-1.9,6l5.2,99.8c0,0-0.2,4.7,1.5,4.7   l12.1-1.6c0,0,2.1,0,2.3-6.9l-0.7-32.1c0,0,7,0,9.3-0.7c0,0,12.9-3.3,13.1-16.9C288.4,184.7,290.9,165.8,285.8,152.2z M273.7,182.3   l-1.9,1.9c-2.2,1.9-5.6,1.4-5.6,1.4c-0.7-0.2-1.2-0.9-1.2-1.6c-2.2-10.3-1.8-30.7-1.8-30.7c0.1-2.3,1.1-2.6,1.8-2.1   c0.7,0.4,2.2,1.2,2.2,1.2l1.1,0.3c3.6,1.2,4.6,6.1,4.6,6.1c1.3,5.6,1.9,11.4,1.6,17.2C274.7,181,273.7,182.3,273.7,182.3   L273.7,182.3z"></path>
</g>
</svg>
