<?xml version="1.0" encoding="UTF-8"?>
<svg xmlns="http://www.w3.org/2000/svg" xmlns:xlink="http://www.w3.org/1999/xlink" version="1.1" id="Layer_1" x="0px" y="0px" viewBox="0 0 516.2 344.9" style="enable-background:new 0 0 516.2 344.9;" xml:space="preserve">
<style type="text/css">
	.st0{fill-rule:evenodd;clip-rule:evenodd;fill:#020303;}
	.st1{fill-rule:evenodd;clip-rule:evenodd;fill:#DDBC3D;}
	.st2{fill-rule:evenodd;clip-rule:evenodd;fill:#FBF6EB;}
</style>
<g id="Fanpact_Logo_SVG_2025" transform="translate(-2.123 -2.538)">
	<path id="Path_7762" class="st0" d="M59.7,328l1.5,9.9c0,0-7.9,20.2-20.2,1.9L13.7,50.4c0,0-0.2-6.7-3.5-9.8c0,0-12.5-8-6.4-25.2   c0,0,14.5-27.7,35.1-1.8c0,0,8.7,12.2-2.9,25.7c0,0-2.7,3.8-1.9,10.8L34,53.9c0,0,62.1,1.2,120.5,20.8l177.2,58.6   c0,0,125.2,39,185.3,45.2c0,0,5.8,1.5-6.9,9.6s-60.9,36.8-116.8,55.3c0,0-83.3,25.6-162.2,33.7l-103.5,18.6c0,0-53.6,8.7-64.7,17.2   C62.8,312.8,58.3,317.1,59.7,328z"></path>
	<path id="Path_7763" class="st1" d="M49.7,69.9l15.9-0.3c0,0,2-0.3,2.1,2.2s11.8,214.7,11.8,214.7s0.3,3.1-3.5,3.8   s-14.1,4.2-14.1,4.2s-3.5,2.3-3.5-2.9S48.5,71.8,48.5,71.8S48.2,69.9,49.7,69.9z"></path>
</g>
</svg>
